<svg xmlns="http://www.w3.org/2000/svg" xmlns:xlink="http://www.w3.org/1999/xlink" width="480" zoomAndPan="magnify" viewBox="0 0 360 136.499996" height="182" preserveAspectRatio="xMidYMid meet" version="1.2"><defs><clipPath id="6d03ebd518"><path d="M 111.558594 1.011719 L 304.761719 1.011719 L 304.761719 99.433594 L 111.558594 99.433594 Z M 111.558594 1.011719 "/></clipPath></defs><g id="2df2a31ec7"><g clip-rule="nonzero" clip-path="url(#6d03ebd518)"><path style=" stroke:none;fill-rule:nonzero;fill:#03989e;fill-opacity:1;" d="M 304.761719 49.867188 C 304.761719 49.867188 299.667969 50.03125 290.3125 50.332031 C 285.628906 50.464844 279.882812 50.625 273.171875 50.816406 C 269.816406 50.902344 266.222656 50.996094 262.398438 51.09375 C 260.484375 51.140625 258.515625 51.191406 256.492188 51.238281 C 255.984375 51.25 255.476562 51.261719 254.960938 51.277344 C 254.6875 51.28125 254.414062 51.289062 254.136719 51.292969 C 253.773438 51.296875 253.402344 51.316406 253.046875 51.289062 C 252.332031 51.257812 251.617188 51.003906 251.046875 50.542969 C 250.765625 50.316406 250.511719 50.046875 250.3125 49.738281 C 250.113281 49.429688 249.964844 49.09375 249.824219 48.738281 C 248.210938 44.519531 246.492188 40.023438 244.679688 35.28125 C 244.234375 34.113281 243.78125 32.933594 243.328125 31.738281 C 243.222656 31.460938 243.113281 31.179688 243.007812 30.902344 L 242.84375 30.503906 C 242.738281 30.25 242.632812 29.992188 242.527344 29.734375 C 242.417969 29.492188 242.351562 29.21875 242.136719 29.046875 C 241.921875 28.882812 241.625 28.828125 241.359375 28.914062 C 241.089844 28.992188 240.871094 29.21875 240.78125 29.492188 C 240.699219 29.753906 240.617188 30.019531 240.53125 30.285156 C 240.488281 30.425781 240.445312 30.566406 240.398438 30.707031 L 240.335938 30.914062 L 240.304688 31.015625 L 240.21875 31.261719 C 239.972656 31.980469 239.722656 32.699219 239.46875 33.425781 C 238.964844 34.878906 238.457031 36.351562 237.9375 37.839844 C 236.902344 40.820312 235.835938 43.875 234.75 46.996094 C 234.207031 48.554688 233.652344 50.132812 233.097656 51.722656 C 232.804688 52.554688 232.511719 53.390625 232.21875 54.234375 C 231.964844 54.933594 231.714844 55.640625 231.460938 56.34375 C 231.335938 56.699219 231.207031 57.054688 231.078125 57.410156 L 230.890625 57.945312 C 230.824219 58.121094 230.765625 58.308594 230.6875 58.46875 C 230.542969 58.792969 230.40625 59.144531 230.234375 59.386719 L 229.984375 59.789062 C 229.902344 59.917969 229.816406 60.003906 229.730469 60.113281 C 229.378906 60.570312 229.070312 60.839844 228.738281 61.144531 C 228.648438 61.210938 228.570312 61.277344 228.476562 61.34375 L 228.171875 61.535156 L 227.820312 61.707031 L 227.4375 61.851562 C 227.304688 61.890625 227.164062 61.925781 227.027344 61.960938 L 226.597656 62.035156 L 226.152344 62.066406 L 225.707031 62.058594 C 225.558594 62.039062 225.410156 62.023438 225.261719 62 C 225.117188 61.96875 224.96875 61.945312 224.828125 61.90625 C 224.6875 61.863281 224.546875 61.820312 224.410156 61.769531 C 224.28125 61.714844 224.144531 61.664062 224.019531 61.601562 C 223.515625 61.355469 223.101562 61.027344 222.820312 60.726562 C 222.675781 60.558594 222.535156 60.378906 222.386719 60.203125 L 222.28125 60.074219 L 222.171875 59.898438 L 221.949219 59.550781 C 221.796875 59.347656 221.675781 59.011719 221.539062 58.726562 C 221.507812 58.648438 221.46875 58.582031 221.441406 58.496094 L 221.367188 58.226562 L 221.214844 57.6875 C 219.214844 47.929688 217.113281 37.664062 214.929688 27.011719 C 214.425781 24.527344 213.914062 22.019531 213.402344 19.488281 C 213.175781 18.371094 212.945312 17.246094 212.714844 16.117188 L 212.644531 15.902344 C 212.621094 15.839844 212.601562 15.789062 212.582031 15.75 C 212.574219 15.726562 212.570312 15.707031 212.554688 15.695312 C 212.539062 15.679688 212.507812 15.679688 212.480469 15.691406 C 212.417969 15.714844 212.390625 15.804688 212.402344 15.871094 L 212.40625 16.042969 C 212.40625 16.097656 212.410156 16.140625 212.414062 16.171875 C 212.277344 17.464844 212.144531 18.765625 212.007812 20.066406 C 211.699219 22.992188 211.382812 25.945312 211.070312 28.917969 C 210.425781 34.867188 209.773438 40.910156 209.113281 47.011719 C 208.011719 57.058594 206.90625 66.941406 205.800781 76.617188 C 205.523438 79.035156 205.25 81.441406 204.972656 83.835938 C 204.773438 85.613281 204.570312 87.390625 204.367188 89.160156 C 204.238281 90.324219 204.105469 91.488281 203.976562 92.648438 C 203.910156 93.226562 203.84375 93.804688 203.78125 94.382812 C 203.738281 94.65625 203.679688 94.894531 203.632812 95.152344 L 203.59375 95.339844 C 203.578125 95.398438 203.570312 95.476562 203.546875 95.515625 L 203.433594 95.800781 L 203.207031 96.363281 L 203.179688 96.433594 C 203.167969 96.453125 203.160156 96.464844 203.148438 96.484375 L 203.085938 96.582031 L 202.960938 96.78125 C 202.792969 97.035156 202.621094 97.347656 202.464844 97.480469 L 201.988281 98 C 201.949219 98.046875 201.914062 98.070312 201.878906 98.101562 L 201.773438 98.1875 L 201.5625 98.363281 C 201.421875 98.480469 201.273438 98.589844 201.042969 98.722656 C 200.933594 98.789062 200.789062 98.855469 200.664062 98.921875 C 200.507812 98.984375 200.375 99.0625 200.203125 99.113281 C 200.039062 99.167969 199.871094 99.222656 199.691406 99.269531 C 199.515625 99.324219 199.328125 99.347656 199.140625 99.375 C 198.957031 99.402344 198.765625 99.421875 198.578125 99.433594 C 198.386719 99.429688 198.195312 99.433594 198.007812 99.417969 L 197.726562 99.398438 L 197.457031 99.351562 C 197.273438 99.320312 197.109375 99.277344 196.9375 99.238281 C 196.78125 99.191406 196.621094 99.132812 196.480469 99.078125 C 196.351562 99.023438 196.195312 98.964844 196.097656 98.910156 C 195.988281 98.851562 195.871094 98.796875 195.800781 98.746094 C 195.714844 98.691406 195.632812 98.640625 195.5625 98.582031 L 195.234375 98.335938 L 195.179688 98.296875 L 195.117188 98.234375 C 194.773438 97.890625 194.457031 97.652344 194.074219 97.082031 L 193.9375 96.894531 L 193.871094 96.800781 L 193.835938 96.753906 L 193.800781 96.6875 L 193.535156 96.15625 L 193.402344 95.886719 L 193.371094 95.820312 L 193.34375 95.734375 L 193.289062 95.550781 L 193.074219 94.832031 C 192.582031 92.453125 192.09375 90.089844 191.609375 87.730469 C 191.3125 86.269531 191.015625 84.808594 190.71875 83.359375 C 190.234375 80.929688 189.746094 78.519531 189.269531 76.128906 C 188.316406 71.347656 187.378906 66.644531 186.460938 62.03125 C 185.550781 57.417969 184.65625 52.886719 183.785156 48.453125 L 183.707031 48.0625 L 183.695312 47.96875 L 183.667969 47.78125 L 183.609375 47.386719 L 183.546875 46.96875 C 183.53125 46.828125 183.492188 46.675781 183.394531 46.566406 C 183.203125 46.34375 182.839844 46.320312 182.648438 46.511719 C 182.550781 46.605469 182.515625 46.734375 182.457031 46.859375 L 182.289062 47.238281 C 182.1875 47.46875 182.085938 47.695312 181.988281 47.921875 C 181.679688 48.714844 181.371094 49.503906 181.0625 50.289062 C 180.449219 51.859375 179.839844 53.414062 179.242188 54.949219 C 178.035156 58.019531 176.855469 61.027344 175.703125 63.964844 C 175.125 65.433594 174.554688 66.882812 173.988281 68.316406 C 173.707031 69.035156 173.425781 69.746094 173.148438 70.453125 C 172.777344 71.402344 172.410156 72.347656 172.046875 73.285156 C 171.9375 73.558594 171.84375 73.84375 171.722656 74.09375 L 171.546875 74.480469 C 171.488281 74.605469 171.417969 74.707031 171.351562 74.824219 C 171.285156 74.933594 171.222656 75.050781 171.15625 75.152344 L 170.949219 75.4375 C 170.878906 75.527344 170.8125 75.628906 170.742188 75.714844 C 170.671875 75.796875 170.609375 75.882812 170.535156 75.960938 C 169.992188 76.601562 169.058594 77.085938 168.085938 77.148438 C 167.121094 77.222656 166.121094 76.902344 165.472656 76.324219 C 165.382812 76.261719 165.320312 76.179688 165.242188 76.105469 C 165.167969 76.035156 165.097656 75.957031 165.03125 75.875 C 164.890625 75.71875 164.753906 75.523438 164.617188 75.347656 C 164.546875 75.265625 164.480469 75.160156 164.414062 75.054688 L 164.21875 74.742188 C 164.085938 74.527344 163.972656 74.273438 163.851562 74.042969 C 163.464844 73.160156 163.078125 72.285156 162.695312 71.414062 C 162.4375 70.820312 162.183594 70.230469 161.929688 69.640625 C 161.421875 68.46875 160.921875 67.308594 160.425781 66.160156 C 159.441406 63.871094 158.480469 61.636719 157.542969 59.46875 C 156.613281 57.296875 155.707031 55.1875 154.828125 53.144531 C 154.71875 52.886719 154.609375 52.632812 154.5 52.378906 C 154.425781 52.203125 154.355469 52.027344 154.28125 51.851562 C 154.171875 51.519531 153.945312 51.21875 153.636719 51.050781 C 153.484375 50.964844 153.316406 50.914062 153.144531 50.894531 C 152.972656 50.878906 152.800781 50.878906 152.625 50.867188 C 152.128906 50.855469 151.640625 50.839844 151.152344 50.828125 C 142.820312 50.601562 135.644531 50.402344 129.777344 50.242188 C 118.046875 49.898438 111.558594 49.667969 111.558594 49.667969 C 111.558594 49.667969 118.046875 49.4375 129.777344 49.09375 C 135.644531 48.929688 142.820312 48.734375 151.152344 48.507812 C 151.707031 48.492188 152.265625 48.480469 152.828125 48.464844 C 153.183594 48.460938 153.542969 48.453125 153.890625 48.496094 C 154.238281 48.546875 154.585938 48.644531 154.90625 48.808594 C 155.550781 49.125 156.070312 49.671875 156.394531 50.328125 C 156.480469 50.488281 156.5625 50.65625 156.644531 50.828125 L 156.871094 51.292969 C 156.992188 51.542969 157.113281 51.789062 157.234375 52.042969 C 158.210938 54.042969 159.214844 56.105469 160.253906 58.226562 C 161.285156 60.351562 162.347656 62.539062 163.441406 64.78125 C 163.988281 65.902344 164.539062 67.039062 165.097656 68.191406 C 165.375 68.765625 165.65625 69.34375 165.941406 69.929688 L 166.035156 70.125 L 166.199219 70.441406 C 166.269531 70.578125 166.339844 70.71875 166.410156 70.855469 C 166.488281 71.003906 166.5625 71.152344 166.640625 71.300781 C 166.71875 71.445312 166.785156 71.59375 166.878906 71.722656 C 167.078125 71.984375 167.4375 72.105469 167.765625 72.042969 C 168.09375 71.984375 168.394531 71.734375 168.5 71.402344 C 168.601562 71.085938 168.703125 70.765625 168.808594 70.445312 C 168.859375 70.292969 168.90625 70.136719 168.957031 69.980469 L 168.972656 69.925781 L 169.007812 69.828125 L 169.101562 69.5625 L 169.289062 69.023438 C 169.539062 68.304688 169.789062 67.582031 170.042969 66.851562 C 170.554688 65.398438 171.066406 63.925781 171.585938 62.4375 C 172.628906 59.457031 173.699219 56.410156 174.789062 53.296875 C 175.335938 51.742188 175.886719 50.167969 176.449219 48.578125 C 176.726562 47.78125 177.007812 46.984375 177.292969 46.179688 C 177.785156 44.808594 178.28125 43.433594 178.78125 42.050781 L 179.046875 41.441406 L 179.113281 41.285156 C 179.136719 41.242188 179.164062 41.203125 179.191406 41.160156 L 179.34375 40.90625 L 179.496094 40.65625 C 179.523438 40.617188 179.550781 40.570312 179.574219 40.535156 L 179.652344 40.4375 L 179.972656 40.039062 C 180.023438 39.976562 180.078125 39.898438 180.128906 39.847656 L 180.585938 39.390625 C 180.683594 39.289062 180.796875 39.210938 180.902344 39.117188 C 181.019531 39.03125 181.152344 38.949219 181.285156 38.867188 C 181.839844 38.554688 182.566406 38.328125 183.3125 38.320312 C 184.054688 38.308594 184.824219 38.480469 185.441406 38.808594 L 185.671875 38.933594 C 185.742188 38.976562 185.8125 39.023438 185.878906 39.070312 C 186.027344 39.15625 186.132812 39.257812 186.253906 39.355469 C 186.375 39.453125 186.457031 39.554688 186.5625 39.652344 C 186.65625 39.757812 186.746094 39.875 186.839844 39.988281 L 186.976562 40.15625 C 187.023438 40.210938 187.066406 40.261719 187.113281 40.34375 L 187.394531 40.777344 C 187.441406 40.851562 187.488281 40.921875 187.53125 41 L 187.789062 41.554688 L 187.851562 41.691406 C 187.875 41.734375 187.894531 41.785156 187.910156 41.84375 L 188.109375 42.511719 C 188.167969 42.742188 188.214844 42.988281 188.269531 43.230469 C 188.378906 43.710938 188.484375 44.195312 188.589844 44.679688 C 188.785156 45.554688 188.980469 46.433594 189.171875 47.316406 C 190.167969 51.722656 191.1875 56.226562 192.222656 60.8125 C 193.25 65.40625 194.296875 70.082031 195.363281 74.839844 C 195.890625 77.222656 196.425781 79.621094 196.960938 82.039062 C 197.097656 82.644531 197.230469 83.25 197.363281 83.859375 L 197.566406 84.769531 L 197.59375 84.882812 L 197.597656 84.910156 L 197.601562 84.917969 L 197.605469 84.933594 L 197.621094 84.972656 L 197.707031 85.226562 L 197.773438 85.40625 C 197.789062 85.429688 197.792969 85.457031 197.8125 85.476562 C 197.828125 85.492188 197.863281 85.5 197.898438 85.488281 C 197.964844 85.472656 198.023438 85.390625 198.015625 85.308594 L 198.015625 85.09375 L 198.011719 84.925781 L 198.007812 84.859375 C 198.066406 84.273438 198.128906 83.683594 198.191406 83.09375 C 198.441406 80.699219 198.691406 78.289062 198.945312 75.867188 C 199.960938 66.179688 201.019531 56.292969 202.117188 46.246094 C 202.796875 40.144531 203.464844 34.105469 204.125 28.160156 C 204.976562 20.632812 205.8125 13.222656 206.628906 5.980469 C 206.707031 5.324219 206.871094 4.84375 207.035156 4.410156 C 207.210938 4.011719 207.402344 3.671875 207.589844 3.40625 C 207.777344 3.121094 207.957031 2.921875 208.140625 2.71875 C 208.308594 2.554688 208.488281 2.363281 208.636719 2.253906 L 208.871094 2.058594 C 208.945312 2.003906 209.015625 1.953125 209.097656 1.894531 C 209.273438 1.777344 209.523438 1.628906 209.839844 1.484375 C 210.15625 1.339844 210.539062 1.210938 210.949219 1.125 C 211.355469 1.042969 211.789062 1 212.214844 1.015625 C 213.0625 1.027344 213.894531 1.285156 214.386719 1.542969 C 214.648438 1.671875 214.789062 1.773438 214.941406 1.875 L 215.183594 2.0625 C 215.265625 2.121094 215.34375 2.179688 215.433594 2.265625 L 215.703125 2.507812 L 215.988281 2.808594 C 216.082031 2.894531 216.183594 3.042969 216.28125 3.164062 C 216.382812 3.277344 216.484375 3.4375 216.585938 3.589844 C 216.785156 3.898438 216.988281 4.292969 217.164062 4.761719 C 217.347656 5.226562 217.457031 5.890625 217.578125 6.515625 C 218.050781 9.019531 218.519531 11.511719 218.988281 13.996094 C 219.253906 15.421875 219.515625 16.84375 219.777344 18.257812 C 220.246094 20.796875 220.707031 23.3125 221.164062 25.808594 C 222.070312 30.800781 222.960938 35.699219 223.832031 40.496094 C 224.261719 42.894531 224.691406 45.265625 225.113281 47.609375 C 225.324219 48.78125 225.53125 49.945312 225.738281 51.105469 C 225.789062 51.394531 225.84375 51.683594 225.894531 51.972656 L 225.957031 52.5 C 225.980469 52.691406 226.007812 52.886719 226.03125 53.078125 C 226.054688 53.285156 226.21875 53.460938 226.410156 53.5 C 226.597656 53.546875 226.808594 53.457031 226.882812 53.289062 C 226.960938 53.113281 227.039062 52.941406 227.117188 52.769531 C 227.199219 52.578125 227.285156 52.390625 227.367188 52.203125 C 227.660156 51.441406 227.953125 50.6875 228.246094 49.9375 C 228.851562 48.367188 229.453125 46.808594 230.050781 45.265625 C 231.246094 42.183594 232.417969 39.171875 233.558594 36.230469 C 234.128906 34.757812 234.695312 33.308594 235.253906 31.875 C 235.53125 31.160156 235.808594 30.449219 236.085938 29.742188 C 236.503906 28.648438 236.921875 27.558594 237.332031 26.480469 C 237.441406 26.242188 237.546875 25.996094 237.660156 25.769531 L 238.027344 25.160156 L 238.410156 24.65625 C 238.472656 24.566406 238.535156 24.503906 238.597656 24.429688 C 238.660156 24.363281 238.71875 24.289062 238.785156 24.222656 C 239.035156 23.953125 239.351562 23.714844 239.71875 23.511719 C 240.089844 23.316406 240.515625 23.183594 240.949219 23.121094 C 241.824219 22.980469 242.75 23.195312 243.464844 23.609375 C 244.183594 24.058594 244.546875 24.605469 245.019531 25.324219 C 245.128906 25.515625 245.234375 25.722656 245.34375 25.921875 C 245.445312 26.125 245.53125 26.375 245.625 26.597656 C 245.800781 27.074219 245.960938 27.5625 246.125 28.039062 C 246.398438 28.84375 246.671875 29.648438 246.941406 30.445312 C 247.347656 31.660156 247.746094 32.859375 248.144531 34.042969 C 249.691406 38.714844 251.160156 43.144531 252.535156 47.296875 C 252.585938 47.441406 252.621094 47.59375 252.683594 47.734375 C 252.75 47.871094 252.84375 47.996094 252.953125 48.101562 C 253.179688 48.3125 253.480469 48.425781 253.785156 48.421875 C 253.9375 48.429688 254.089844 48.4375 254.242188 48.441406 C 254.484375 48.449219 254.722656 48.453125 254.960938 48.460938 C 255.476562 48.472656 255.984375 48.484375 256.492188 48.496094 C 258.515625 48.546875 260.484375 48.59375 262.398438 48.640625 C 266.222656 48.742188 269.816406 48.835938 273.171875 48.921875 C 279.882812 49.109375 285.628906 49.273438 290.3125 49.40625 C 299.667969 49.707031 304.761719 49.867188 304.761719 49.867188 "/></g><g style="fill:#ffffff;fill-opacity:1;"><g transform="translate(13.831113, 90.861011)"><path style="stroke:none" d="M 20.140625 -6.859375 C 21.304688 -6.859375 22.429688 -7.03125 23.515625 -7.375 C 24.609375 -7.726562 25.410156 -8.066406 25.921875 -8.390625 L 26.6875 -8.921875 L 29.921875 -2.46875 C 29.804688 -2.382812 29.65625 -2.273438 29.46875 -2.140625 C 29.28125 -2.003906 28.84375 -1.753906 28.15625 -1.390625 C 27.46875 -1.023438 26.734375 -0.707031 25.953125 -0.4375 C 25.179688 -0.175781 24.160156 0.0625 22.890625 0.28125 C 21.628906 0.5 20.320312 0.609375 18.96875 0.609375 C 15.875 0.609375 12.941406 -0.148438 10.171875 -1.671875 C 7.398438 -3.191406 5.164062 -5.285156 3.46875 -7.953125 C 1.769531 -10.617188 0.921875 -13.5 0.921875 -16.59375 C 0.921875 -18.9375 1.421875 -21.179688 2.421875 -23.328125 C 3.421875 -25.484375 4.742188 -27.328125 6.390625 -28.859375 C 8.046875 -30.398438 9.976562 -31.628906 12.1875 -32.546875 C 14.394531 -33.460938 16.65625 -33.921875 18.96875 -33.921875 C 21.125 -33.921875 23.109375 -33.660156 24.921875 -33.140625 C 26.742188 -32.628906 28.03125 -32.117188 28.78125 -31.609375 L 29.921875 -30.84375 L 26.6875 -24.390625 C 26.5 -24.546875 26.21875 -24.738281 25.84375 -24.96875 C 25.46875 -25.195312 24.710938 -25.5 23.578125 -25.875 C 22.453125 -26.257812 21.304688 -26.453125 20.140625 -26.453125 C 18.316406 -26.453125 16.675781 -26.15625 15.21875 -25.5625 C 13.769531 -24.96875 12.617188 -24.1875 11.765625 -23.21875 C 10.921875 -22.25 10.273438 -21.203125 9.828125 -20.078125 C 9.390625 -18.960938 9.171875 -17.828125 9.171875 -16.671875 C 9.171875 -14.140625 10.117188 -11.867188 12.015625 -9.859375 C 13.910156 -7.859375 16.617188 -6.859375 20.140625 -6.859375 Z M 20.140625 -6.859375 "/></g></g><g style="fill:#ffffff;fill-opacity:1;"><g transform="translate(44.223777, 90.861011)"><path style="stroke:none" d="M 3.828125 -2.5625 C 1.890625 -4.675781 0.921875 -7.265625 0.921875 -10.328125 C 0.921875 -13.398438 1.890625 -16 3.828125 -18.125 C 5.773438 -20.25 8.238281 -21.3125 11.21875 -21.3125 C 13.96875 -21.3125 16.226562 -20.453125 18 -18.734375 L 18 -20.71875 L 25.15625 -20.71875 L 25.15625 0 L 18.09375 0 L 18.09375 -2.34375 L 18 -2.34375 C 16.226562 -0.375 13.96875 0.609375 11.21875 0.609375 C 8.238281 0.609375 5.773438 -0.445312 3.828125 -2.5625 Z M 9.90625 -13.84375 C 8.976562 -12.925781 8.515625 -11.753906 8.515625 -10.328125 C 8.515625 -8.910156 8.957031 -7.75 9.84375 -6.84375 C 10.738281 -5.9375 11.910156 -5.484375 13.359375 -5.484375 C 14.765625 -5.484375 15.914062 -5.941406 16.8125 -6.859375 C 17.71875 -7.773438 18.171875 -8.9375 18.171875 -10.34375 C 18.171875 -11.757812 17.707031 -12.925781 16.78125 -13.84375 C 15.851562 -14.757812 14.710938 -15.21875 13.359375 -15.21875 C 11.992188 -15.21875 10.84375 -14.757812 9.90625 -13.84375 Z M 9.90625 -13.84375 "/></g></g><g style="fill:#ffffff;fill-opacity:1;"><g transform="translate(71.791088, 90.861011)"><path style="stroke:none" d="M 2.421875 0 L 2.421875 -20.71875 L 9.5625 -20.71875 L 9.5625 -17.71875 L 9.65625 -17.71875 C 9.707031 -17.832031 9.789062 -17.96875 9.90625 -18.125 C 10.03125 -18.289062 10.296875 -18.570312 10.703125 -18.96875 C 11.109375 -19.375 11.535156 -19.738281 11.984375 -20.0625 C 12.441406 -20.382812 13.035156 -20.671875 13.765625 -20.921875 C 14.492188 -21.179688 15.234375 -21.3125 15.984375 -21.3125 C 16.765625 -21.3125 17.53125 -21.203125 18.28125 -20.984375 C 19.039062 -20.773438 19.59375 -20.5625 19.9375 -20.34375 L 20.515625 -20.03125 L 17.515625 -13.96875 C 16.628906 -14.71875 15.394531 -15.09375 13.8125 -15.09375 C 12.945312 -15.09375 12.203125 -14.90625 11.578125 -14.53125 C 10.960938 -14.15625 10.523438 -13.695312 10.265625 -13.15625 C 10.015625 -12.625 9.832031 -12.164062 9.71875 -11.78125 C 9.613281 -11.40625 9.5625 -11.113281 9.5625 -10.90625 L 9.5625 0 Z M 2.421875 0 "/></g></g><g style="fill:#ffffff;fill-opacity:1;"><g transform="translate(91.891417, 90.861011)"><path style="stroke:none" d="M 3.828125 -2.5625 C 1.890625 -4.675781 0.921875 -7.265625 0.921875 -10.328125 C 0.921875 -13.398438 1.890625 -16 3.828125 -18.125 C 5.773438 -20.25 8.238281 -21.3125 11.21875 -21.3125 C 13.96875 -21.3125 16.226562 -20.453125 18 -18.734375 L 18 -34.71875 L 25.15625 -34.71875 L 25.15625 0 L 18.09375 0 L 18.09375 -2.34375 L 18 -2.34375 C 16.226562 -0.375 13.96875 0.609375 11.21875 0.609375 C 8.238281 0.609375 5.773438 -0.445312 3.828125 -2.5625 Z M 9.90625 -13.84375 C 8.976562 -12.925781 8.515625 -11.753906 8.515625 -10.328125 C 8.515625 -8.910156 8.957031 -7.75 9.84375 -6.84375 C 10.738281 -5.9375 11.910156 -5.484375 13.359375 -5.484375 C 14.765625 -5.484375 15.914062 -5.941406 16.8125 -6.859375 C 17.71875 -7.773438 18.171875 -8.9375 18.171875 -10.34375 C 18.171875 -11.757812 17.707031 -12.925781 16.78125 -13.84375 C 15.851562 -14.757812 14.710938 -15.21875 13.359375 -15.21875 C 11.992188 -15.21875 10.84375 -14.757812 9.90625 -13.84375 Z M 9.90625 -13.84375 "/></g></g><g style="fill:#ffffff;fill-opacity:1;"><g transform="translate(119.458728, 90.861011)"><path style="stroke:none" d="M 3.109375 -32.265625 C 3.941406 -33.097656 4.9375 -33.515625 6.09375 -33.515625 C 7.25 -33.515625 8.242188 -33.097656 9.078125 -32.265625 C 9.921875 -31.429688 10.34375 -30.429688 10.34375 -29.265625 C 10.34375 -28.109375 9.921875 -27.113281 9.078125 -26.28125 C 8.242188 -25.445312 7.25 -25.03125 6.09375 -25.03125 C 4.9375 -25.03125 3.941406 -25.445312 3.109375 -26.28125 C 2.273438 -27.113281 1.859375 -28.109375 1.859375 -29.265625 C 1.859375 -30.429688 2.273438 -31.429688 3.109375 -32.265625 Z M 2.421875 -20.71875 L 2.421875 0 L 9.5625 0 L 9.5625 -20.71875 Z M 2.421875 -20.71875 "/></g></g><g style="fill:#ffffff;fill-opacity:1;"><g transform="translate(131.648081, 90.861011)"><path style="stroke:none" d="M 4.375 -2.453125 C 2.070312 -4.503906 0.921875 -7.128906 0.921875 -10.328125 C 0.921875 -13.535156 2.117188 -16.164062 4.515625 -18.21875 C 6.910156 -20.28125 9.875 -21.3125 13.40625 -21.3125 C 16.875 -21.3125 19.800781 -20.273438 22.1875 -18.203125 C 24.570312 -16.128906 25.765625 -13.503906 25.765625 -10.328125 C 25.765625 -7.160156 24.597656 -4.546875 22.265625 -2.484375 C 19.941406 -0.421875 16.988281 0.609375 13.40625 0.609375 C 9.6875 0.609375 6.675781 -0.410156 4.375 -2.453125 Z M 9.90625 -13.84375 C 8.976562 -12.925781 8.515625 -11.753906 8.515625 -10.328125 C 8.515625 -8.910156 8.957031 -7.75 9.84375 -6.84375 C 10.738281 -5.9375 11.910156 -5.484375 13.359375 -5.484375 C 14.765625 -5.484375 15.914062 -5.941406 16.8125 -6.859375 C 17.71875 -7.773438 18.171875 -8.9375 18.171875 -10.34375 C 18.171875 -11.757812 17.707031 -12.925781 16.78125 -13.84375 C 15.851562 -14.757812 14.710938 -15.21875 13.359375 -15.21875 C 11.992188 -15.21875 10.84375 -14.757812 9.90625 -13.84375 Z M 9.90625 -13.84375 "/></g></g><g style="fill:#ffffff;fill-opacity:1;"><g transform="translate(39.402235, 129.904384)"><path style="stroke:none" d="M 9.25 -2.546875 L 3.71875 -2.546875 L 2.671875 0 L -0.15625 0 L 5.15625 -11.90625 L 7.875 -11.90625 L 13.1875 0 L 10.296875 0 Z M 8.375 -4.640625 L 6.5 -9.203125 L 4.609375 -4.640625 Z M 8.375 -4.640625 "/></g></g><g style="fill:#ffffff;fill-opacity:1;"><g transform="translate(55.149734, 129.904384)"><path style="stroke:none" d="M 3.75 -7.9375 C 4.070312 -8.382812 4.5 -8.71875 5.03125 -8.9375 C 5.570312 -9.164062 6.195312 -9.28125 6.90625 -9.28125 L 6.90625 -6.828125 C 6.601562 -6.859375 6.40625 -6.875 6.3125 -6.875 C 5.550781 -6.875 4.953125 -6.660156 4.515625 -6.234375 C 4.085938 -5.804688 3.875 -5.164062 3.875 -4.3125 L 3.875 0 L 1.21875 0 L 1.21875 -9.140625 L 3.75 -9.140625 Z M 3.75 -7.9375 "/></g></g><g style="fill:#ffffff;fill-opacity:1;"><g transform="translate(65.207526, 129.904384)"><path style="stroke:none" d="M 3.75 -7.9375 C 4.070312 -8.382812 4.5 -8.71875 5.03125 -8.9375 C 5.570312 -9.164062 6.195312 -9.28125 6.90625 -9.28125 L 6.90625 -6.828125 C 6.601562 -6.859375 6.40625 -6.875 6.3125 -6.875 C 5.550781 -6.875 4.953125 -6.660156 4.515625 -6.234375 C 4.085938 -5.804688 3.875 -5.164062 3.875 -4.3125 L 3.875 0 L 1.21875 0 L 1.21875 -9.140625 L 3.75 -9.140625 Z M 3.75 -7.9375 "/></g></g><g style="fill:#ffffff;fill-opacity:1;"><g transform="translate(75.265317, 129.904384)"><path style="stroke:none" d="M 6.78125 -9.28125 C 7.914062 -9.28125 8.832031 -8.9375 9.53125 -8.25 C 10.226562 -7.570312 10.578125 -6.566406 10.578125 -5.234375 L 10.578125 0 L 7.921875 0 L 7.921875 -4.828125 C 7.921875 -5.554688 7.757812 -6.097656 7.4375 -6.453125 C 7.125 -6.804688 6.664062 -6.984375 6.0625 -6.984375 C 5.394531 -6.984375 4.863281 -6.773438 4.46875 -6.359375 C 4.070312 -5.953125 3.875 -5.335938 3.875 -4.515625 L 3.875 0 L 1.21875 0 L 1.21875 -12.609375 L 3.875 -12.609375 L 3.875 -8.1875 C 4.226562 -8.539062 4.65625 -8.8125 5.15625 -9 C 5.65625 -9.1875 6.195312 -9.28125 6.78125 -9.28125 Z M 6.78125 -9.28125 "/></g></g><g style="fill:#ffffff;fill-opacity:1;"><g transform="translate(89.738999, 129.904384)"><path style="stroke:none" d="M 10.296875 -9.140625 L 6.171875 0.5625 C 5.753906 1.613281 5.234375 2.351562 4.609375 2.78125 C 3.992188 3.21875 3.25 3.4375 2.375 3.4375 C 1.90625 3.4375 1.4375 3.359375 0.96875 3.203125 C 0.5 3.054688 0.117188 2.851562 -0.171875 2.59375 L 0.796875 0.71875 C 1.003906 0.894531 1.238281 1.035156 1.5 1.140625 C 1.769531 1.242188 2.035156 1.296875 2.296875 1.296875 C 2.660156 1.296875 2.953125 1.207031 3.171875 1.03125 C 3.398438 0.851562 3.609375 0.5625 3.796875 0.15625 L 3.828125 0.0625 L -0.140625 -9.140625 L 2.59375 -9.140625 L 5.171875 -2.9375 L 7.75 -9.140625 Z M 10.296875 -9.140625 "/></g></g><g style="fill:#ffffff;fill-opacity:1;"><g transform="translate(102.633151, 129.904384)"><path style="stroke:none" d="M 7.125 -0.4375 C 6.863281 -0.25 6.539062 -0.101562 6.15625 0 C 5.78125 0.09375 5.382812 0.140625 4.96875 0.140625 C 3.875 0.140625 3.03125 -0.132812 2.4375 -0.6875 C 1.84375 -1.25 1.546875 -2.066406 1.546875 -3.140625 L 1.546875 -6.90625 L 0.140625 -6.90625 L 0.140625 -8.9375 L 1.546875 -8.9375 L 1.546875 -11.171875 L 4.203125 -11.171875 L 4.203125 -8.9375 L 6.484375 -8.9375 L 6.484375 -6.90625 L 4.203125 -6.90625 L 4.203125 -3.171875 C 4.203125 -2.785156 4.300781 -2.488281 4.5 -2.28125 C 4.695312 -2.070312 4.976562 -1.96875 5.34375 -1.96875 C 5.757812 -1.96875 6.113281 -2.082031 6.40625 -2.3125 Z M 7.125 -0.4375 "/></g></g><g style="fill:#ffffff;fill-opacity:1;"><g transform="translate(112.75887, 129.904384)"><path style="stroke:none" d="M 6.78125 -9.28125 C 7.914062 -9.28125 8.832031 -8.9375 9.53125 -8.25 C 10.226562 -7.570312 10.578125 -6.566406 10.578125 -5.234375 L 10.578125 0 L 7.921875 0 L 7.921875 -4.828125 C 7.921875 -5.554688 7.757812 -6.097656 7.4375 -6.453125 C 7.125 -6.804688 6.664062 -6.984375 6.0625 -6.984375 C 5.394531 -6.984375 4.863281 -6.773438 4.46875 -6.359375 C 4.070312 -5.953125 3.875 -5.335938 3.875 -4.515625 L 3.875 0 L 1.21875 0 L 1.21875 -12.609375 L 3.875 -12.609375 L 3.875 -8.1875 C 4.226562 -8.539062 4.65625 -8.8125 5.15625 -9 C 5.65625 -9.1875 6.195312 -9.28125 6.78125 -9.28125 Z M 6.78125 -9.28125 "/></g></g><g style="fill:#ffffff;fill-opacity:1;"><g transform="translate(127.232552, 129.904384)"><path style="stroke:none" d="M 12.9375 -9.28125 C 14.082031 -9.28125 14.988281 -8.941406 15.65625 -8.265625 C 16.332031 -7.597656 16.671875 -6.585938 16.671875 -5.234375 L 16.671875 0 L 14.03125 0 L 14.03125 -4.828125 C 14.03125 -5.554688 13.878906 -6.097656 13.578125 -6.453125 C 13.273438 -6.804688 12.847656 -6.984375 12.296875 -6.984375 C 11.671875 -6.984375 11.175781 -6.78125 10.8125 -6.375 C 10.445312 -5.976562 10.265625 -5.382812 10.265625 -4.59375 L 10.265625 0 L 7.609375 0 L 7.609375 -4.828125 C 7.609375 -6.265625 7.03125 -6.984375 5.875 -6.984375 C 5.269531 -6.984375 4.785156 -6.78125 4.421875 -6.375 C 4.054688 -5.976562 3.875 -5.382812 3.875 -4.59375 L 3.875 0 L 1.21875 0 L 1.21875 -9.140625 L 3.75 -9.140625 L 3.75 -8.09375 C 4.09375 -8.476562 4.507812 -8.769531 5 -8.96875 C 5.5 -9.175781 6.039062 -9.28125 6.625 -9.28125 C 7.269531 -9.28125 7.851562 -9.148438 8.375 -8.890625 C 8.894531 -8.640625 9.316406 -8.269531 9.640625 -7.78125 C 10.015625 -8.257812 10.488281 -8.628906 11.0625 -8.890625 C 11.632812 -9.148438 12.257812 -9.28125 12.9375 -9.28125 Z M 12.9375 -9.28125 "/></g></g><g style="fill:#ffffff;fill-opacity:1;"><g transform="translate(147.786595, 129.904384)"><path style="stroke:none" d="M 1.21875 -9.140625 L 3.875 -9.140625 L 3.875 0 L 1.21875 0 Z M 2.5625 -10.421875 C 2.070312 -10.421875 1.671875 -10.5625 1.359375 -10.84375 C 1.054688 -11.125 0.90625 -11.476562 0.90625 -11.90625 C 0.90625 -12.320312 1.054688 -12.671875 1.359375 -12.953125 C 1.671875 -13.234375 2.070312 -13.375 2.5625 -13.375 C 3.039062 -13.375 3.429688 -13.238281 3.734375 -12.96875 C 4.046875 -12.695312 4.203125 -12.359375 4.203125 -11.953125 C 4.203125 -11.503906 4.046875 -11.132812 3.734375 -10.84375 C 3.429688 -10.5625 3.039062 -10.421875 2.5625 -10.421875 Z M 2.5625 -10.421875 "/></g></g><g style="fill:#ffffff;fill-opacity:1;"><g transform="translate(155.636434, 129.904384)"><path style="stroke:none" d="M 4.90625 -9.28125 C 6.320312 -9.28125 7.410156 -8.941406 8.171875 -8.265625 C 8.929688 -7.597656 9.3125 -6.582031 9.3125 -5.21875 L 9.3125 0 L 6.828125 0 L 6.828125 -1.140625 C 6.335938 -0.285156 5.410156 0.140625 4.046875 0.140625 C 3.335938 0.140625 2.722656 0.0195312 2.203125 -0.21875 C 1.691406 -0.457031 1.300781 -0.785156 1.03125 -1.203125 C 0.757812 -1.628906 0.625 -2.109375 0.625 -2.640625 C 0.625 -3.484375 0.941406 -4.148438 1.578125 -4.640625 C 2.222656 -5.128906 3.21875 -5.375 4.5625 -5.375 L 6.65625 -5.375 C 6.65625 -5.945312 6.476562 -6.390625 6.125 -6.703125 C 5.78125 -7.015625 5.257812 -7.171875 4.5625 -7.171875 C 4.070312 -7.171875 3.585938 -7.09375 3.109375 -6.9375 C 2.640625 -6.789062 2.242188 -6.585938 1.921875 -6.328125 L 0.96875 -8.171875 C 1.46875 -8.523438 2.066406 -8.796875 2.765625 -8.984375 C 3.460938 -9.179688 4.175781 -9.28125 4.90625 -9.28125 Z M 4.703125 -1.65625 C 5.160156 -1.65625 5.5625 -1.757812 5.90625 -1.96875 C 6.257812 -2.175781 6.507812 -2.484375 6.65625 -2.890625 L 6.65625 -3.828125 L 4.84375 -3.828125 C 3.757812 -3.828125 3.21875 -3.46875 3.21875 -2.75 C 3.21875 -2.414062 3.347656 -2.148438 3.609375 -1.953125 C 3.878906 -1.753906 4.242188 -1.65625 4.703125 -1.65625 Z M 4.703125 -1.65625 "/></g></g><g style="fill:#ffffff;fill-opacity:1;"><g transform="translate(168.853284, 129.904384)"><path style="stroke:none" d=""/></g></g><g style="fill:#ffffff;fill-opacity:1;"><g transform="translate(176.397397, 129.904384)"><path style="stroke:none" d="M 1.40625 -11.90625 L 6.8125 -11.90625 C 8.101562 -11.90625 9.242188 -11.65625 10.234375 -11.15625 C 11.234375 -10.664062 12.003906 -9.972656 12.546875 -9.078125 C 13.097656 -8.179688 13.375 -7.140625 13.375 -5.953125 C 13.375 -4.765625 13.097656 -3.722656 12.546875 -2.828125 C 12.003906 -1.929688 11.234375 -1.234375 10.234375 -0.734375 C 9.242188 -0.242188 8.101562 0 6.8125 0 L 1.40625 0 Z M 6.6875 -2.265625 C 7.875 -2.265625 8.820312 -2.59375 9.53125 -3.25 C 10.238281 -3.914062 10.59375 -4.816406 10.59375 -5.953125 C 10.59375 -7.085938 10.238281 -7.984375 9.53125 -8.640625 C 8.820312 -9.304688 7.875 -9.640625 6.6875 -9.640625 L 4.171875 -9.640625 L 4.171875 -2.265625 Z M 6.6875 -2.265625 "/></g></g><g style="fill:#ffffff;fill-opacity:1;"><g transform="translate(193.163958, 129.904384)"><path style="stroke:none" d="M 10.1875 -4.53125 C 10.1875 -4.5 10.164062 -4.265625 10.125 -3.828125 L 3.21875 -3.828125 C 3.34375 -3.253906 3.632812 -2.800781 4.09375 -2.46875 C 4.5625 -2.144531 5.140625 -1.984375 5.828125 -1.984375 C 6.304688 -1.984375 6.726562 -2.050781 7.09375 -2.1875 C 7.46875 -2.332031 7.8125 -2.5625 8.125 -2.875 L 9.53125 -1.34375 C 8.675781 -0.351562 7.421875 0.140625 5.765625 0.140625 C 4.734375 0.140625 3.820312 -0.0625 3.03125 -0.46875 C 2.238281 -0.875 1.625 -1.429688 1.1875 -2.140625 C 0.757812 -2.859375 0.546875 -3.671875 0.546875 -4.578125 C 0.546875 -5.472656 0.753906 -6.28125 1.171875 -7 C 1.597656 -7.71875 2.179688 -8.273438 2.921875 -8.671875 C 3.671875 -9.078125 4.503906 -9.28125 5.421875 -9.28125 C 6.316406 -9.28125 7.125 -9.085938 7.84375 -8.703125 C 8.570312 -8.316406 9.144531 -7.765625 9.5625 -7.046875 C 9.976562 -6.328125 10.1875 -5.488281 10.1875 -4.53125 Z M 5.4375 -7.28125 C 4.832031 -7.28125 4.328125 -7.109375 3.921875 -6.765625 C 3.515625 -6.421875 3.265625 -5.957031 3.171875 -5.375 L 7.6875 -5.375 C 7.59375 -5.945312 7.34375 -6.40625 6.9375 -6.75 C 6.53125 -7.101562 6.03125 -7.28125 5.4375 -7.28125 Z M 5.4375 -7.28125 "/></g></g><g style="fill:#ffffff;fill-opacity:1;"><g transform="translate(206.618591, 129.904384)"><path style="stroke:none" d="M 7.125 -0.4375 C 6.863281 -0.25 6.539062 -0.101562 6.15625 0 C 5.78125 0.09375 5.382812 0.140625 4.96875 0.140625 C 3.875 0.140625 3.03125 -0.132812 2.4375 -0.6875 C 1.84375 -1.25 1.546875 -2.066406 1.546875 -3.140625 L 1.546875 -6.90625 L 0.140625 -6.90625 L 0.140625 -8.9375 L 1.546875 -8.9375 L 1.546875 -11.171875 L 4.203125 -11.171875 L 4.203125 -8.9375 L 6.484375 -8.9375 L 6.484375 -6.90625 L 4.203125 -6.90625 L 4.203125 -3.171875 C 4.203125 -2.785156 4.300781 -2.488281 4.5 -2.28125 C 4.695312 -2.070312 4.976562 -1.96875 5.34375 -1.96875 C 5.757812 -1.96875 6.113281 -2.082031 6.40625 -2.3125 Z M 7.125 -0.4375 "/></g></g><g style="fill:#ffffff;fill-opacity:1;"><g transform="translate(216.744311, 129.904384)"><path style="stroke:none" d="M 10.1875 -4.53125 C 10.1875 -4.5 10.164062 -4.265625 10.125 -3.828125 L 3.21875 -3.828125 C 3.34375 -3.253906 3.632812 -2.800781 4.09375 -2.46875 C 4.5625 -2.144531 5.140625 -1.984375 5.828125 -1.984375 C 6.304688 -1.984375 6.726562 -2.050781 7.09375 -2.1875 C 7.46875 -2.332031 7.8125 -2.5625 8.125 -2.875 L 9.53125 -1.34375 C 8.675781 -0.351562 7.421875 0.140625 5.765625 0.140625 C 4.734375 0.140625 3.820312 -0.0625 3.03125 -0.46875 C 2.238281 -0.875 1.625 -1.429688 1.1875 -2.140625 C 0.757812 -2.859375 0.546875 -3.671875 0.546875 -4.578125 C 0.546875 -5.472656 0.753906 -6.28125 1.171875 -7 C 1.597656 -7.71875 2.179688 -8.273438 2.921875 -8.671875 C 3.671875 -9.078125 4.503906 -9.28125 5.421875 -9.28125 C 6.316406 -9.28125 7.125 -9.085938 7.84375 -8.703125 C 8.570312 -8.316406 9.144531 -7.765625 9.5625 -7.046875 C 9.976562 -6.328125 10.1875 -5.488281 10.1875 -4.53125 Z M 5.4375 -7.28125 C 4.832031 -7.28125 4.328125 -7.109375 3.921875 -6.765625 C 3.515625 -6.421875 3.265625 -5.957031 3.171875 -5.375 L 7.6875 -5.375 C 7.59375 -5.945312 7.34375 -6.40625 6.9375 -6.75 C 6.53125 -7.101562 6.03125 -7.28125 5.4375 -7.28125 Z M 5.4375 -7.28125 "/></g></g><g style="fill:#ffffff;fill-opacity:1;"><g transform="translate(230.198944, 129.904384)"><path style="stroke:none" d="M 5.640625 0.140625 C 4.671875 0.140625 3.796875 -0.0625 3.015625 -0.46875 C 2.242188 -0.875 1.640625 -1.429688 1.203125 -2.140625 C 0.765625 -2.859375 0.546875 -3.671875 0.546875 -4.578125 C 0.546875 -5.484375 0.765625 -6.289062 1.203125 -7 C 1.640625 -7.71875 2.242188 -8.273438 3.015625 -8.671875 C 3.796875 -9.078125 4.671875 -9.28125 5.640625 -9.28125 C 6.609375 -9.28125 7.453125 -9.078125 8.171875 -8.671875 C 8.890625 -8.273438 9.410156 -7.703125 9.734375 -6.953125 L 7.6875 -5.84375 C 7.207031 -6.6875 6.519531 -7.109375 5.625 -7.109375 C 4.9375 -7.109375 4.363281 -6.878906 3.90625 -6.421875 C 3.457031 -5.972656 3.234375 -5.359375 3.234375 -4.578125 C 3.234375 -3.796875 3.457031 -3.175781 3.90625 -2.71875 C 4.363281 -2.269531 4.9375 -2.046875 5.625 -2.046875 C 6.53125 -2.046875 7.21875 -2.460938 7.6875 -3.296875 L 9.734375 -2.171875 C 9.410156 -1.453125 8.890625 -0.882812 8.171875 -0.46875 C 7.453125 -0.0625 6.609375 0.140625 5.640625 0.140625 Z M 5.640625 0.140625 "/></g></g><g style="fill:#ffffff;fill-opacity:1;"><g transform="translate(242.974212, 129.904384)"><path style="stroke:none" d="M 7.125 -0.4375 C 6.863281 -0.25 6.539062 -0.101562 6.15625 0 C 5.78125 0.09375 5.382812 0.140625 4.96875 0.140625 C 3.875 0.140625 3.03125 -0.132812 2.4375 -0.6875 C 1.84375 -1.25 1.546875 -2.066406 1.546875 -3.140625 L 1.546875 -6.90625 L 0.140625 -6.90625 L 0.140625 -8.9375 L 1.546875 -8.9375 L 1.546875 -11.171875 L 4.203125 -11.171875 L 4.203125 -8.9375 L 6.484375 -8.9375 L 6.484375 -6.90625 L 4.203125 -6.90625 L 4.203125 -3.171875 C 4.203125 -2.785156 4.300781 -2.488281 4.5 -2.28125 C 4.695312 -2.070312 4.976562 -1.96875 5.34375 -1.96875 C 5.757812 -1.96875 6.113281 -2.082031 6.40625 -2.3125 Z M 7.125 -0.4375 "/></g></g><g style="fill:#ffffff;fill-opacity:1;"><g transform="translate(253.099931, 129.904384)"><path style="stroke:none" d="M 1.21875 -9.140625 L 3.875 -9.140625 L 3.875 0 L 1.21875 0 Z M 2.5625 -10.421875 C 2.070312 -10.421875 1.671875 -10.5625 1.359375 -10.84375 C 1.054688 -11.125 0.90625 -11.476562 0.90625 -11.90625 C 0.90625 -12.320312 1.054688 -12.671875 1.359375 -12.953125 C 1.671875 -13.234375 2.070312 -13.375 2.5625 -13.375 C 3.039062 -13.375 3.429688 -13.238281 3.734375 -12.96875 C 4.046875 -12.695312 4.203125 -12.359375 4.203125 -11.953125 C 4.203125 -11.503906 4.046875 -11.132812 3.734375 -10.84375 C 3.429688 -10.5625 3.039062 -10.421875 2.5625 -10.421875 Z M 2.5625 -10.421875 "/></g></g><g style="fill:#ffffff;fill-opacity:1;"><g transform="translate(260.949771, 129.904384)"><path style="stroke:none" d="M 5.578125 0.140625 C 4.609375 0.140625 3.742188 -0.0625 2.984375 -0.46875 C 2.222656 -0.875 1.625 -1.429688 1.1875 -2.140625 C 0.757812 -2.859375 0.546875 -3.671875 0.546875 -4.578125 C 0.546875 -5.484375 0.757812 -6.289062 1.1875 -7 C 1.625 -7.71875 2.222656 -8.273438 2.984375 -8.671875 C 3.742188 -9.078125 4.609375 -9.28125 5.578125 -9.28125 C 6.535156 -9.28125 7.394531 -9.078125 8.15625 -8.671875 C 8.914062 -8.273438 9.507812 -7.71875 9.9375 -7 C 10.375 -6.289062 10.59375 -5.484375 10.59375 -4.578125 C 10.59375 -3.671875 10.375 -2.859375 9.9375 -2.140625 C 9.507812 -1.429688 8.914062 -0.875 8.15625 -0.46875 C 7.394531 -0.0625 6.535156 0.140625 5.578125 0.140625 Z M 5.578125 -2.046875 C 6.253906 -2.046875 6.8125 -2.273438 7.25 -2.734375 C 7.6875 -3.191406 7.90625 -3.804688 7.90625 -4.578125 C 7.90625 -5.347656 7.6875 -5.960938 7.25 -6.421875 C 6.8125 -6.878906 6.253906 -7.109375 5.578125 -7.109375 C 4.898438 -7.109375 4.335938 -6.878906 3.890625 -6.421875 C 3.453125 -5.960938 3.234375 -5.347656 3.234375 -4.578125 C 3.234375 -3.804688 3.453125 -3.191406 3.890625 -2.734375 C 4.335938 -2.273438 4.898438 -2.046875 5.578125 -2.046875 Z M 5.578125 -2.046875 "/></g></g><g style="fill:#ffffff;fill-opacity:1;"><g transform="translate(274.812029, 129.904384)"><path style="stroke:none" d="M 6.78125 -9.28125 C 7.914062 -9.28125 8.832031 -8.9375 9.53125 -8.25 C 10.226562 -7.570312 10.578125 -6.566406 10.578125 -5.234375 L 10.578125 0 L 7.921875 0 L 7.921875 -4.828125 C 7.921875 -5.554688 7.757812 -6.097656 7.4375 -6.453125 C 7.125 -6.804688 6.664062 -6.984375 6.0625 -6.984375 C 5.394531 -6.984375 4.863281 -6.773438 4.46875 -6.359375 C 4.070312 -5.953125 3.875 -5.335938 3.875 -4.515625 L 3.875 0 L 1.21875 0 L 1.21875 -9.140625 L 3.75 -9.140625 L 3.75 -8.078125 C 4.101562 -8.460938 4.539062 -8.757812 5.0625 -8.96875 C 5.582031 -9.175781 6.15625 -9.28125 6.78125 -9.28125 Z M 6.78125 -9.28125 "/></g></g><g style="fill:#ffffff;fill-opacity:1;"><g transform="translate(289.28571, 129.904384)"><path style="stroke:none" d=""/></g></g><g style="fill:#ffffff;fill-opacity:1;"><g transform="translate(296.829809, 129.904384)"><path style="stroke:none" d="M 9.25 -2.546875 L 3.71875 -2.546875 L 2.671875 0 L -0.15625 0 L 5.15625 -11.90625 L 7.875 -11.90625 L 13.1875 0 L 10.296875 0 Z M 8.375 -4.640625 L 6.5 -9.203125 L 4.609375 -4.640625 Z M 8.375 -4.640625 "/></g></g><g style="fill:#ffffff;fill-opacity:1;"><g transform="translate(312.577308, 129.904384)"><path style="stroke:none" d="M 6.625 -9.28125 C 7.476562 -9.28125 8.253906 -9.082031 8.953125 -8.6875 C 9.648438 -8.300781 10.195312 -7.753906 10.59375 -7.046875 C 10.988281 -6.335938 11.1875 -5.515625 11.1875 -4.578125 C 11.1875 -3.628906 10.988281 -2.800781 10.59375 -2.09375 C 10.195312 -1.382812 9.648438 -0.832031 8.953125 -0.4375 C 8.253906 -0.0507812 7.476562 0.140625 6.625 0.140625 C 5.457031 0.140625 4.539062 -0.226562 3.875 -0.96875 L 3.875 3.296875 L 1.21875 3.296875 L 1.21875 -9.140625 L 3.75 -9.140625 L 3.75 -8.09375 C 4.414062 -8.882812 5.375 -9.28125 6.625 -9.28125 Z M 6.171875 -2.046875 C 6.847656 -2.046875 7.40625 -2.273438 7.84375 -2.734375 C 8.28125 -3.191406 8.5 -3.804688 8.5 -4.578125 C 8.5 -5.347656 8.28125 -5.960938 7.84375 -6.421875 C 7.40625 -6.878906 6.847656 -7.109375 6.171875 -7.109375 C 5.492188 -7.109375 4.9375 -6.878906 4.5 -6.421875 C 4.0625 -5.960938 3.84375 -5.347656 3.84375 -4.578125 C 3.84375 -3.804688 4.0625 -3.191406 4.5 -2.734375 C 4.9375 -2.273438 5.492188 -2.046875 6.171875 -2.046875 Z M 6.171875 -2.046875 "/></g></g><g style="fill:#ffffff;fill-opacity:1;"><g transform="translate(327.034018, 129.904384)"><path style="stroke:none" d="M 6.625 -9.28125 C 7.476562 -9.28125 8.253906 -9.082031 8.953125 -8.6875 C 9.648438 -8.300781 10.195312 -7.753906 10.59375 -7.046875 C 10.988281 -6.335938 11.1875 -5.515625 11.1875 -4.578125 C 11.1875 -3.628906 10.988281 -2.800781 10.59375 -2.09375 C 10.195312 -1.382812 9.648438 -0.832031 8.953125 -0.4375 C 8.253906 -0.0507812 7.476562 0.140625 6.625 0.140625 C 5.457031 0.140625 4.539062 -0.226562 3.875 -0.96875 L 3.875 3.296875 L 1.21875 3.296875 L 1.21875 -9.140625 L 3.75 -9.140625 L 3.75 -8.09375 C 4.414062 -8.882812 5.375 -9.28125 6.625 -9.28125 Z M 6.171875 -2.046875 C 6.847656 -2.046875 7.40625 -2.273438 7.84375 -2.734375 C 8.28125 -3.191406 8.5 -3.804688 8.5 -4.578125 C 8.5 -5.347656 8.28125 -5.960938 7.84375 -6.421875 C 7.40625 -6.878906 6.847656 -7.109375 6.171875 -7.109375 C 5.492188 -7.109375 4.9375 -6.878906 4.5 -6.421875 C 4.0625 -5.960938 3.84375 -5.347656 3.84375 -4.578125 C 3.84375 -3.804688 4.0625 -3.191406 4.5 -2.734375 C 4.9375 -2.273438 5.492188 -2.046875 6.171875 -2.046875 Z M 6.171875 -2.046875 "/></g></g><g style="fill:#ffffff;fill-opacity:1;"><g transform="translate(222.532723, 90.861011)"><path style="stroke:none" d="M 1.5 5.09375 L 7.34375 2.21875 C 8.425781 4 10.296875 4.890625 12.953125 4.890625 C 14.191406 4.890625 15.34375 4.488281 16.40625 3.6875 C 17.46875 2.894531 18 1.679688 18 0.046875 L 18 -1.5 C 16.738281 -0.09375 14.476562 0.609375 11.21875 0.609375 C 8.238281 0.609375 5.773438 -0.445312 3.828125 -2.5625 C 1.890625 -4.675781 0.921875 -7.265625 0.921875 -10.328125 C 0.921875 -13.398438 1.890625 -16 3.828125 -18.125 C 5.773438 -20.25 8.238281 -21.3125 11.21875 -21.3125 C 13.882812 -21.3125 16.109375 -20.492188 17.890625 -18.859375 L 18 -18.859375 L 18 -20.71875 L 25.15625 -20.71875 L 25.15625 0.5625 C 25.15625 3.925781 24.035156 6.523438 21.796875 8.359375 C 19.566406 10.191406 16.617188 11.109375 12.953125 11.109375 C 7.035156 11.109375 3.21875 9.101562 1.5 5.09375 Z M 9.90625 -13.84375 C 8.976562 -12.925781 8.515625 -11.753906 8.515625 -10.328125 C 8.515625 -8.910156 8.957031 -7.75 9.84375 -6.84375 C 10.738281 -5.9375 11.910156 -5.484375 13.359375 -5.484375 C 14.765625 -5.484375 15.914062 -5.941406 16.8125 -6.859375 C 17.71875 -7.773438 18.171875 -8.9375 18.171875 -10.34375 C 18.171875 -11.757812 17.707031 -12.925781 16.78125 -13.84375 C 15.851562 -14.757812 14.710938 -15.21875 13.359375 -15.21875 C 11.992188 -15.21875 10.84375 -14.757812 9.90625 -13.84375 Z M 9.90625 -13.84375 "/></g></g><g style="fill:#ffffff;fill-opacity:1;"><g transform="translate(250.100035, 90.861011)"><path style="stroke:none" d="M 2.421875 0 L 2.421875 -20.71875 L 9.5625 -20.71875 L 9.5625 -18.53125 L 9.65625 -18.53125 C 11.507812 -20.382812 13.484375 -21.3125 15.578125 -21.3125 C 16.609375 -21.3125 17.625 -21.175781 18.625 -20.90625 C 19.632812 -20.644531 20.601562 -20.226562 21.53125 -19.65625 C 22.46875 -19.09375 23.222656 -18.289062 23.796875 -17.25 C 24.378906 -16.21875 24.671875 -15.015625 24.671875 -13.640625 L 24.671875 0 L 17.515625 0 L 17.515625 -11.703125 C 17.515625 -12.785156 17.171875 -13.726562 16.484375 -14.53125 C 15.804688 -15.34375 14.914062 -15.75 13.8125 -15.75 C 12.726562 -15.75 11.75 -15.332031 10.875 -14.5 C 10 -13.664062 9.5625 -12.734375 9.5625 -11.703125 L 9.5625 0 Z M 2.421875 0 "/></g></g><g style="fill:#ffffff;fill-opacity:1;"><g transform="translate(276.779389, 90.861011)"><path style="stroke:none" d="M 4.375 -2.453125 C 2.070312 -4.503906 0.921875 -7.128906 0.921875 -10.328125 C 0.921875 -13.535156 2.117188 -16.164062 4.515625 -18.21875 C 6.910156 -20.28125 9.875 -21.3125 13.40625 -21.3125 C 16.875 -21.3125 19.800781 -20.273438 22.1875 -18.203125 C 24.570312 -16.128906 25.765625 -13.503906 25.765625 -10.328125 C 25.765625 -7.160156 24.597656 -4.546875 22.265625 -2.484375 C 19.941406 -0.421875 16.988281 0.609375 13.40625 0.609375 C 9.6875 0.609375 6.675781 -0.410156 4.375 -2.453125 Z M 9.90625 -13.84375 C 8.976562 -12.925781 8.515625 -11.753906 8.515625 -10.328125 C 8.515625 -8.910156 8.957031 -7.75 9.84375 -6.84375 C 10.738281 -5.9375 11.910156 -5.484375 13.359375 -5.484375 C 14.765625 -5.484375 15.914062 -5.941406 16.8125 -6.859375 C 17.71875 -7.773438 18.171875 -8.9375 18.171875 -10.34375 C 18.171875 -11.757812 17.707031 -12.925781 16.78125 -13.84375 C 15.851562 -14.757812 14.710938 -15.21875 13.359375 -15.21875 C 11.992188 -15.21875 10.84375 -14.757812 9.90625 -13.84375 Z M 9.90625 -13.84375 "/></g></g><g style="fill:#ffffff;fill-opacity:1;"><g transform="translate(303.458743, 90.861011)"><path style="stroke:none" d="M 11.421875 -21.3125 C 12.609375 -21.3125 13.78125 -21.175781 14.9375 -20.90625 C 16.09375 -20.644531 16.953125 -20.378906 17.515625 -20.109375 L 18.375 -19.703125 L 16.03125 -15.015625 C 14.414062 -15.878906 12.878906 -16.3125 11.421875 -16.3125 C 10.617188 -16.3125 10.046875 -16.222656 9.703125 -16.046875 C 9.367188 -15.867188 9.203125 -15.539062 9.203125 -15.0625 C 9.203125 -14.945312 9.210938 -14.835938 9.234375 -14.734375 C 9.265625 -14.628906 9.320312 -14.53125 9.40625 -14.4375 C 9.488281 -14.34375 9.5625 -14.257812 9.625 -14.1875 C 9.695312 -14.125 9.8125 -14.050781 9.96875 -13.96875 C 10.132812 -13.882812 10.265625 -13.820312 10.359375 -13.78125 C 10.453125 -13.75 10.601562 -13.691406 10.8125 -13.609375 C 11.03125 -13.523438 11.191406 -13.460938 11.296875 -13.421875 C 11.410156 -13.378906 11.59375 -13.316406 11.84375 -13.234375 C 12.101562 -13.160156 12.300781 -13.109375 12.4375 -13.078125 C 13.269531 -12.835938 13.992188 -12.566406 14.609375 -12.265625 C 15.234375 -11.972656 15.890625 -11.570312 16.578125 -11.0625 C 17.265625 -10.550781 17.796875 -9.90625 18.171875 -9.125 C 18.546875 -8.34375 18.734375 -7.453125 18.734375 -6.453125 C 18.734375 -1.742188 15.460938 0.609375 8.921875 0.609375 C 7.441406 0.609375 6.035156 0.378906 4.703125 -0.078125 C 3.367188 -0.535156 2.40625 -0.992188 1.8125 -1.453125 L 0.921875 -2.1875 L 3.828125 -7.0625 C 4.046875 -6.875 4.328125 -6.648438 4.671875 -6.390625 C 5.023438 -6.140625 5.660156 -5.789062 6.578125 -5.34375 C 7.492188 -4.90625 8.289062 -4.6875 8.96875 -4.6875 C 10.445312 -4.6875 11.1875 -5.179688 11.1875 -6.171875 C 11.1875 -6.628906 10.992188 -6.984375 10.609375 -7.234375 C 10.234375 -7.492188 9.59375 -7.785156 8.6875 -8.109375 C 7.789062 -8.429688 7.085938 -8.726562 6.578125 -9 C 5.285156 -9.675781 4.257812 -10.4375 3.5 -11.28125 C 2.75 -12.132812 2.375 -13.257812 2.375 -14.65625 C 2.375 -16.757812 3.1875 -18.394531 4.8125 -19.5625 C 6.445312 -20.726562 8.648438 -21.3125 11.421875 -21.3125 Z M 11.421875 -21.3125 "/></g></g><g style="fill:#ffffff;fill-opacity:1;"><g transform="translate(323.316894, 90.861011)"><path style="stroke:none" d="M 23.375 -9.359375 L 8.359375 -9.359375 C 8.359375 -7.910156 8.828125 -6.835938 9.765625 -6.140625 C 10.710938 -5.441406 11.738281 -5.09375 12.84375 -5.09375 C 14 -5.09375 14.910156 -5.242188 15.578125 -5.546875 C 16.253906 -5.859375 17.023438 -6.472656 17.890625 -7.390625 L 23.046875 -4.796875 C 20.898438 -1.191406 17.320312 0.609375 12.3125 0.609375 C 9.1875 0.609375 6.503906 -0.457031 4.265625 -2.59375 C 2.035156 -4.738281 0.921875 -7.316406 0.921875 -10.328125 C 0.921875 -13.347656 2.035156 -15.929688 4.265625 -18.078125 C 6.503906 -20.234375 9.1875 -21.3125 12.3125 -21.3125 C 15.59375 -21.3125 18.265625 -20.363281 20.328125 -18.46875 C 22.390625 -16.570312 23.421875 -13.863281 23.421875 -10.34375 C 23.421875 -9.851562 23.40625 -9.523438 23.375 -9.359375 Z M 8.5625 -13.328125 L 16.4375 -13.328125 C 16.269531 -14.398438 15.84375 -15.222656 15.15625 -15.796875 C 14.46875 -16.378906 13.585938 -16.671875 12.515625 -16.671875 C 11.328125 -16.671875 10.382812 -16.359375 9.6875 -15.734375 C 8.988281 -15.117188 8.613281 -14.316406 8.5625 -13.328125 Z M 8.5625 -13.328125 "/></g></g></g></svg>